<?xml version="1.0" encoding="UTF-8"?>
<svg role="img" aria-label="cDeals" xmlns="http://www.w3.org/2000/svg" viewBox="0 0 299.87 70.7">
  <defs>
    <style>
      .cls-1 {
        fill: #7f7e7e;
      }

      .cls-2 {
        fill: #53abf4;
      }

      .cls-3 {
        fill: #333;
      }
    </style>
  </defs>
  <g>
    <g>
      <path class="cls-2" d="M38.16,15c-1.07-8.42-6.11-13.69-13.46-13.69s-12.59,5.27-13.68,13.69H0v55.09h3.09v-4.51h.03V18.13h7.67c0,.11-.02.21-.02.32,0,1.56.05,2.96.12,4.29h3.13c-.07-1.31-.12-2.72-.12-4.29,0-.11.02-.21.02-.32h21.31c0,.11.02.21.02.32,0,1.57-.05,2.98-.12,4.29h3.13c.07-1.33.11-2.73.11-4.29,0-.11-.02-.21-.02-.32h7.44v48.83h-18.74c-10.04-.45-18.07-8.73-18.07-18.87s8.49-18.92,18.92-18.92c4.86,0,9.28,1.86,12.64,4.88l1.19-3.08c-3.78-3.06-8.59-4.9-13.82-4.9-12.14,0-22.02,9.88-22.02,22.02,0,10.89,7.95,19.92,18.35,21.67.14.05.8.25,2.74.33,4.93.21,21.95,0,21.95,0V15h-10.77ZM14.17,15c.98-6.59,4.81-10.56,10.52-10.56s9.35,3.98,10.3,10.56H14.17Z"/>
      <g>
        <path class="cls-3" d="M88.81,47.45c-2.83,1.38-5.15,1.65-7.33,1.65-5.74,0-9.5-2.45-11.62-4.49-2.77-2.7-4.56-6.66-4.56-11.01s1.79-8.52,4.75-11.42c2.78-2.64,6.86-4.49,11.89-4.49,1.84,0,4.22.33,6.86,1.65v8.85c-1.39-.99-3.23-1.91-5.47-1.91-2.51,0-4.1.99-5.15,2.05-1.46,1.44-2.05,3.36-2.05,5.07s.59,3.57,1.84,4.94c.99,1.06,2.72,2.25,5.42,2.25,1.52,0,3.49-.33,5.41-1.98v8.85Z"/>
        <path class="cls-3" d="M95.78,48.11V4.1h14.98c4.43,0,11.82.59,17.5,6.07,5.14,4.94,6.13,11.28,6.13,16.05,0,5.79-1.46,10.95-5.74,15.23-3.49,3.5-9.36,6.67-16.9,6.67h-15.97ZM107.2,38.41h2.31c2.77,0,6.67-.27,9.63-3.17,1.46-1.39,3.37-4.16,3.37-9.04,0-4.1-1.26-7.6-3.44-9.65-2.7-2.51-6.27-2.77-9.1-2.77h-2.77v24.62Z"/>
        <path class="cls-3" d="M171.89,35.31h-21.98c0,1.58.59,3.7,1.85,4.94.66.66,1.98,1.46,4.35,1.46.27,0,2.11-.06,3.44-.8.66-.39,1.38-1.06,1.84-1.97h10.1c-.46,1.65-1.38,3.95-3.57,6.07-2.18,2.11-5.6,4.1-12,4.1-3.9,0-8.59-.86-12.21-4.49-1.92-1.91-4.37-5.54-4.37-11.15,0-4.94,1.85-8.91,4.43-11.41,2.43-2.38,6.27-4.29,12.08-4.29,3.43,0,7.84.72,11.35,4.02,4.16,3.97,4.69,9.1,4.69,12.41v1.12ZM162.2,29.23c-.27-1.12-.93-2.37-1.73-3.17-1.38-1.38-3.3-1.58-4.35-1.58-1.78,0-3.17.46-4.29,1.58-.72.8-1.39,1.85-1.58,3.17h11.95Z"/>
        <path class="cls-3" d="M200.77,18.61h10.56v29.5h-10.56v-3.23c-2.45,3.36-6.27,4.22-9.17,4.22-3.17,0-7.07-.93-10.64-4.69-2.83-3.04-4.22-6.4-4.22-10.82,0-5.55,2.19-9.44,4.56-11.82,2.51-2.51,6.4-4.16,10.62-4.16,4.75,0,7.6,2.45,8.85,3.82v-2.83ZM189.68,28.51c-1.46,1.38-2.11,3.3-2.11,4.82,0,1.71.72,3.57,2.05,4.82,1.12,1.06,2.96,1.98,4.75,1.98s3.43-.73,4.75-2.05c.93-.93,1.98-2.37,1.98-4.75,0-1.39-.4-3.23-2.05-4.82-.99-.93-2.51-1.92-4.75-1.92-1.33,0-3.1.46-4.62,1.92Z"/>
        <path class="cls-3" d="M229.11,0v48.11h-10.56V0h10.56Z"/>
        <path class="cls-3" d="M238.2,38.34c1.25.93,2.77,1.73,4.22,2.19,1.31.46,2.96.72,4.1.72.79,0,2.03-.19,2.7-.8.46-.45.53-.85.53-1.38,0-.46-.06-.93-.53-1.33-.67-.59-1.73-.79-2.78-1.06l-2.77-.66c-1.46-.32-3.57-.86-5.15-2.58-1.12-1.18-1.91-2.83-1.91-5.07,0-2.85,1.12-5.49,2.77-7.2,2.24-2.31,6.21-3.57,10.56-3.57s7.73,1.2,9.44,1.92l-3.57,6.73c-1.44-.67-3.63-1.46-5.54-1.46-1.06,0-1.79.19-2.45.59-.59.33-.93.8-.93,1.46,0,.91.59,1.38,1.26,1.65.99.4,1.84.4,3.5.86l1.91.52c1.39.4,3.5,1.46,4.35,2.32,1.46,1.39,2.25,3.7,2.25,5.87,0,3.57-1.52,5.94-2.97,7.33-3.43,3.43-8.45,3.7-10.89,3.7-2.64,0-6.8-.33-11.87-3.44l3.76-7.33Z"/>
      </g>
      <g>
        <path class="cls-1" d="M71.71,61.64c.49,0,1.57.03,2.27.68.57.54.63,1.29.63,1.67,0,.35-.05.73-.28,1.12-.23.37-.54.57-.75.66.42.06.9.28,1.22.59.28.3.57.8.57,1.58,0,.89-.35,1.44-.7,1.79-.72.71-1.79.76-2.33.76h-3.34v-8.86h2.7ZM71.02,65.25h.33c.27,0,.73-.04,1.03-.26.18-.13.36-.4.36-.79s-.19-.62-.35-.75c-.3-.22-.7-.22-1.06-.22h-.32v2.01ZM71.02,68.91h.49c.52,0,1.15-.01,1.51-.36.19-.17.3-.42.3-.73,0-.36-.14-.61-.27-.72-.36-.33-1.06-.33-1.47-.33h-.55v2.15Z"/>
        <path class="cls-1" d="M84.69,68.83h-3.35l-.68,1.67h-2.12l3.58-8.86h1.87l3.49,8.86h-2.12l-.66-1.67ZM84.12,67.26l-1.08-2.97-1.11,2.97h2.19Z"/>
        <path class="cls-1" d="M94.14,61.64c1.13,0,1.84.37,2.27.77.37.36.76.99.76,1.98,0,.55-.12,1.25-.68,1.8-.31.3-.75.55-1.24.67l2.72,3.63h-2.5l-2.38-3.49v3.49h-2.05v-8.86h3.1ZM93.08,65.68h.46c.37,0,.88-.04,1.22-.39.14-.15.33-.42.33-.86,0-.52-.24-.77-.41-.9-.33-.26-.86-.28-1.13-.28h-.48v2.43Z"/>
        <path class="cls-1" d="M105.95,65.68h4.39v.09c0,1.07-.39,2.7-1.37,3.73-.99,1.02-2.11,1.2-3.17,1.2s-2.2-.17-3.23-1.22c-.53-.54-1.3-1.61-1.3-3.37,0-1.46.53-2.6,1.27-3.36,1.08-1.13,2.42-1.29,3.48-1.29.72,0,1.66.12,2.49.66.59.4,1.11,1.03,1.43,1.58l-1.84.99c-.18-.33-.44-.7-.79-.95-.4-.3-.85-.42-1.35-.42-.81,0-1.42.27-1.84.72-.49.52-.76,1.27-.76,2.1,0,1,.37,1.66.75,2.02.52.54,1.12.7,1.79.7.89,0,1.35-.31,1.55-.48.06-.05.46-.4.64-1.06h-2.14v-1.64Z"/>
        <path class="cls-1" d="M119.35,68.83h-3.35l-.67,1.67h-2.12l3.57-8.86h1.88l3.49,8.86h-2.12l-.67-1.67ZM118.8,67.26l-1.09-2.97-1.09,2.97h2.19Z"/>
        <path class="cls-1" d="M127.8,61.64v8.86h-2.05v-8.86h2.05Z"/>
        <path class="cls-1" d="M132.4,70.5v-8.86h1.78l4.8,5.72v-5.72h2.05v8.86h-1.78l-4.82-5.74v5.74h-2.03Z"/>
        <path class="cls-1" d="M150.09,63.81c-.67-.59-1.24-.63-1.49-.63-.27,0-.62.04-.86.3-.13.14-.22.33-.22.57,0,.21.06.37.19.49.22.19.52.28,1.12.5l.66.26c.39.14.86.35,1.21.67.52.49.66,1.13.66,1.65,0,.91-.32,1.71-.79,2.19-.79.82-1.93.9-2.51.9-.64,0-1.2-.09-1.75-.36-.45-.23-.97-.64-1.3-.98l1.06-1.46c.23.22.59.53.82.67.35.22.71.32,1.12.32.26,0,.63-.05.93-.3.17-.15.32-.39.32-.72,0-.3-.12-.48-.31-.64-.23-.19-.79-.4-1.03-.49l-.73-.24c-.41-.15-.89-.33-1.24-.71-.46-.49-.53-1.12-.53-1.55,0-.79.23-1.44.77-1.98.62-.64,1.37-.81,2.19-.81.61,0,1.58.1,2.63.88l-.91,1.48Z"/>
        <path class="cls-1" d="M168.96,62.74c.84.81,1.39,1.97,1.39,3.35,0,1.17-.42,2.38-1.39,3.31-.81.8-1.93,1.3-3.43,1.3-1.65,0-2.78-.66-3.45-1.3-.85-.79-1.38-1.98-1.38-3.28s.57-2.56,1.37-3.36c.61-.61,1.7-1.3,3.46-1.3,1.39,0,2.54.42,3.43,1.29ZM163.59,64.09c-.39.37-.79,1.02-.79,2.01,0,.81.27,1.46.81,1.98.57.55,1.21.73,1.89.73.9,0,1.55-.33,1.97-.76.35-.33.77-.95.77-1.97,0-.93-.37-1.6-.77-2-.44-.42-1.15-.76-1.96-.76-.76,0-1.46.28-1.93.76Z"/>
        <path class="cls-1" d="M174.44,70.5v-8.86h1.78l4.8,5.72v-5.72h2.05v8.86h-1.78l-4.82-5.74v5.74h-2.03Z"/>
        <path class="cls-1" d="M198.28,63.37h-2.96v1.71h2.82v1.73h-2.82v1.97h2.96v1.73h-5v-8.86h5v1.73Z"/>
        <path class="cls-1" d="M204.58,61.64v7.13h2.76v1.73h-4.79v-8.86h2.03Z"/>
        <path class="cls-1" d="M216.09,63.37h-2.96v1.71h2.81v1.73h-2.81v1.97h2.96v1.73h-5.01v-8.86h5.01v1.73Z"/>
        <path class="cls-1" d="M226.74,70.22c-.79.4-1.42.48-1.96.48-1.62,0-2.73-.55-3.48-1.29-.8-.76-1.38-1.93-1.38-3.35s.58-2.56,1.38-3.34c.79-.76,1.93-1.27,3.31-1.27.58,0,1.26.12,2.12.49v2.36c-.45-.48-1.13-.94-2.07-.94-.75,0-1.34.24-1.8.7-.49.48-.84,1.2-.84,2.05,0,.91.37,1.56.77,1.94.18.19.82.75,1.91.75.54,0,1.25-.14,2.03-.91v2.34Z"/>
        <path class="cls-1" d="M234.07,63.37v7.13h-2.05v-7.13h-1.93v-1.73h5.9v1.73h-1.92Z"/>
        <path class="cls-1" d="M242.76,61.64c1.13,0,1.83.37,2.25.77.37.36.77.99.77,1.98,0,.55-.12,1.25-.68,1.8-.31.3-.75.55-1.24.67l2.72,3.63h-2.5l-2.38-3.49v3.49h-2.05v-8.86h3.1ZM241.7,65.68h.46c.37,0,.88-.04,1.22-.39.14-.15.32-.42.32-.86,0-.52-.23-.77-.4-.9-.33-.26-.86-.28-1.13-.28h-.48v2.43Z"/>
        <path class="cls-1" d="M258.15,62.74c.84.81,1.38,1.97,1.38,3.35,0,1.17-.42,2.38-1.38,3.31-.82.8-1.94,1.3-3.43,1.3-1.66,0-2.79-.66-3.45-1.3-.85-.79-1.39-1.98-1.39-3.28s.58-2.56,1.38-3.36c.59-.61,1.7-1.3,3.46-1.3,1.38,0,2.54.42,3.43,1.29ZM252.77,64.09c-.39.37-.79,1.02-.79,2.01,0,.81.27,1.46.81,1.98.57.55,1.21.73,1.91.73.9,0,1.53-.33,1.96-.76.35-.33.77-.95.77-1.97,0-.93-.37-1.6-.77-2-.44-.42-1.13-.76-1.94-.76s-1.47.28-1.94.76Z"/>
        <path class="cls-1" d="M263.61,70.5v-8.86h1.78l4.82,5.72v-5.72h2.05v8.86h-1.79l-4.8-5.74v5.74h-2.05Z"/>
        <path class="cls-1" d="M278.83,61.64v8.86h-2.05v-8.86h2.05Z"/>
        <path class="cls-1" d="M289.81,70.22c-.79.4-1.42.48-1.94.48-1.64,0-2.74-.55-3.48-1.29-.8-.76-1.39-1.93-1.39-3.35s.59-2.56,1.39-3.34c.77-.76,1.92-1.27,3.3-1.27.59,0,1.26.12,2.12.49v2.36c-.45-.48-1.12-.94-2.07-.94-.73,0-1.34.24-1.8.7-.49.48-.84,1.2-.84,2.05,0,.91.37,1.56.77,1.94.19.19.82.75,1.92.75.53,0,1.24-.14,2.02-.91v2.34Z"/>
        <path class="cls-1" d="M298.61,63.81c-.67-.59-1.24-.63-1.48-.63-.28,0-.63.04-.86.3-.14.14-.23.33-.23.57,0,.21.06.37.19.49.22.19.53.28,1.12.5l.67.26c.39.14.86.35,1.2.67.53.49.66,1.13.66,1.65,0,.91-.32,1.71-.79,2.19-.79.82-1.92.9-2.51.9-.63,0-1.2-.09-1.75-.36-.45-.23-.97-.64-1.3-.98l1.07-1.46c.22.22.58.53.82.67.33.22.7.32,1.11.32.27,0,.64-.05.93-.3.18-.15.32-.39.32-.72,0-.3-.12-.48-.31-.64-.23-.19-.79-.4-1.03-.49l-.73-.24c-.41-.15-.89-.33-1.24-.71-.46-.49-.53-1.12-.53-1.55,0-.79.24-1.44.77-1.98.62-.64,1.37-.81,2.19-.81.61,0,1.6.1,2.63.88l-.91,1.48Z"/>
      </g>
    </g>
  </g>
</svg>