<?xml version="1.0" encoding="UTF-8"?>
<svg xmlns="http://www.w3.org/2000/svg" viewBox="0 0 17.51 29.86" role="img" aria-label="logo-full">
  <defs>
    <style>
      .cls-1 {
        fill: #7f7e7e;
      }

      .cls-2 {
        fill: #53abf4;
      }

      .cls-3 {
        fill: #333;
      }
    </style>
  </defs>
  <path class="cls-2" d="M13.21,4.38c-.34-2.69-1.95-4.38-4.3-4.38s-4.03,1.69-4.37,4.38H1.02v17.61h.99v-1.44h.01V5.38h2.45s0,.07,0,.1c0,.5.02.95.04,1.37h1c-.02-.42-.04-.87-.04-1.37,0-.04,0-.07,0-.1h6.81s0,.07,0,.1c0,.5-.01.95-.04,1.37h1c.02-.42.04-.87.04-1.37,0-.04,0-.07,0-.1h2.38v15.61h-5.99c-3.21-.14-5.78-2.79-5.78-6.03s2.71-6.05,6.05-6.05c1.55,0,2.97.59,4.04,1.56l.38-.98c-1.21-.98-2.75-1.57-4.42-1.57-3.88,0-7.04,3.16-7.04,7.04,0,3.48,2.54,6.37,5.87,6.93.04.02.26.08.88.11,1.58.07,7.02,0,7.02,0V4.38h-3.44ZM5.55,4.38c.31-2.11,1.54-3.38,3.36-3.38s2.99,1.27,3.29,3.38h-6.66Z"/>
  <g>
    <path class="cls-3" d="M2.98,28.09c-.21.1-.39.12-.56.12-.44,0-.72-.19-.88-.34-.21-.21-.35-.5-.35-.83s.14-.65.36-.87c.21-.2.52-.34.9-.34.14,0,.32.03.52.12v.67c-.1-.08-.25-.14-.42-.14-.19,0-.31.08-.39.16-.11.11-.16.25-.16.38s.04.27.14.38c.08.08.21.17.41.17.12,0,.27-.03.41-.15v.67Z"/>
    <path class="cls-3" d="M3.5,28.14v-3.34h1.14c.34,0,.9.04,1.33.46.39.38.47.86.47,1.22,0,.44-.11.83-.44,1.16-.27.27-.71.51-1.28.51h-1.21ZM4.37,27.41h.17c.21,0,.51-.02.73-.24.11-.11.26-.32.26-.69,0-.31-.1-.58-.26-.73-.21-.19-.48-.21-.69-.21h-.21v1.87Z"/>
    <path class="cls-3" d="M9.28,27.17h-1.67c0,.12.04.28.14.38.05.05.15.11.33.11.02,0,.16,0,.26-.06.05-.03.1-.08.14-.15h.77c-.04.12-.1.3-.27.46-.17.16-.43.31-.91.31-.3,0-.65-.07-.93-.34-.15-.14-.33-.42-.33-.85,0-.38.14-.68.34-.87.19-.18.48-.33.92-.33.26,0,.6.05.86.3.32.3.36.69.36.94v.08ZM8.54,26.71c-.02-.08-.07-.18-.13-.24-.1-.1-.25-.12-.33-.12-.13,0-.24.04-.33.12-.05.06-.1.14-.12.24h.91Z"/>
    <path class="cls-3" d="M11.47,25.91h.8v2.24h-.8v-.25c-.19.25-.48.32-.7.32-.24,0-.54-.07-.81-.36-.21-.23-.32-.49-.32-.82,0-.42.17-.72.35-.9.19-.19.49-.32.81-.32.36,0,.58.19.67.29v-.21ZM10.63,26.66c-.11.1-.16.25-.16.37,0,.13.05.27.16.37.08.08.22.15.36.15s.26-.06.36-.16c.07-.07.15-.18.15-.36,0-.11-.03-.25-.16-.37-.08-.07-.19-.15-.36-.15-.1,0-.24.04-.35.15Z"/>
    <path class="cls-3" d="M13.62,24.5v3.65h-.8v-3.65h.8Z"/>
    <path class="cls-3" d="M14.31,27.4c.09.07.21.13.32.17.1.04.22.05.31.05.06,0,.16-.01.21-.06.04-.03.04-.06.04-.1,0-.04,0-.07-.04-.1-.05-.04-.13-.06-.21-.08l-.21-.05c-.11-.02-.27-.07-.39-.2-.08-.09-.15-.21-.15-.38,0-.22.09-.42.21-.55.17-.17.47-.27.8-.27s.58.09.72.15l-.27.51c-.11-.05-.28-.11-.42-.11-.08,0-.13.01-.18.04-.04.03-.07.06-.07.11,0,.07.04.1.09.12.08.03.14.03.27.07l.15.04c.1.03.26.11.33.18.11.11.17.28.17.45,0,.27-.12.45-.22.56-.26.26-.64.28-.83.28-.2,0-.52-.03-.9-.26l.29-.56Z"/>
  </g>
  <g>
    <path class="cls-1" d="M.21,29.17s.12,0,.17.05c.04.04.05.1.05.13,0,.03,0,.06-.02.08-.02.03-.04.04-.06.05.03,0,.07.02.09.04.02.02.04.06.04.12,0,.07-.03.11-.05.14-.06.05-.14.06-.18.06h-.25v-.67h.21ZM.15,29.44h.03s.06,0,.08-.02c.01,0,.03-.03.03-.06s-.01-.05-.03-.06c-.02-.02-.05-.02-.08-.02h-.02v.15ZM.15,29.72h.04s.09,0,.11-.03c.01-.01.02-.03.02-.06,0-.03-.01-.05-.02-.05-.03-.03-.08-.03-.11-.03h-.04v.16Z"/>
    <path class="cls-1" d="M1.19,29.72h-.25l-.05.13h-.16l.27-.67h.14l.26.67h-.16l-.05-.13ZM1.15,29.6l-.08-.23-.08.23h.17Z"/>
    <path class="cls-1" d="M1.91,29.17c.09,0,.14.03.17.06.03.03.06.08.06.15,0,.04,0,.09-.05.14-.02.02-.06.04-.09.05l.21.28h-.19l-.18-.26v.26h-.15v-.67h.24ZM1.83,29.48h.04s.07,0,.09-.03c.01-.01.03-.03.03-.07,0-.04-.02-.06-.03-.07-.03-.02-.07-.02-.09-.02h-.04v.18Z"/>
    <path class="cls-1" d="M2.8,29.48h.33c0,.09-.03.21-.1.29-.07.08-.16.09-.24.09s-.17-.01-.25-.09c-.04-.04-.1-.12-.1-.26,0-.11.04-.2.1-.25.08-.09.18-.1.26-.1.06,0,.13,0,.19.05.05.03.08.08.11.12l-.14.08s-.03-.05-.06-.07c-.03-.02-.06-.03-.1-.03-.06,0-.11.02-.14.05-.04.04-.06.1-.06.16,0,.08.03.13.06.15.04.04.08.05.14.05.07,0,.1-.02.12-.04,0,0,.04-.03.05-.08h-.16v-.12Z"/>
    <path class="cls-1" d="M3.82,29.72h-.25l-.05.13h-.16l.27-.67h.14l.26.67h-.16l-.05-.13ZM3.78,29.6l-.08-.23-.08.23h.17Z"/>
    <path class="cls-1" d="M4.46,29.17v.67h-.15v-.67h.15Z"/>
    <path class="cls-1" d="M4.81,29.84v-.67h.13l.36.43v-.43h.15v.67h-.13l-.36-.44v.44h-.15Z"/>
    <path class="cls-1" d="M6.15,29.34c-.05-.04-.09-.05-.11-.05-.02,0-.05,0-.07.02-.01.01-.02.03-.02.04,0,.02,0,.03.02.04.02.01.04.02.08.04l.05.02s.07.03.09.05c.04.04.05.09.05.12,0,.07-.02.13-.06.17-.06.06-.15.07-.19.07-.05,0-.09,0-.13-.03-.03-.02-.07-.05-.1-.07l.08-.11s.04.04.06.05c.03.02.05.02.08.02.02,0,.05,0,.07-.02.01-.01.02-.03.02-.05,0-.02,0-.04-.02-.05-.02-.01-.06-.03-.08-.04l-.06-.02s-.07-.03-.09-.05c-.04-.04-.04-.08-.04-.12,0-.06.02-.11.06-.15.05-.05.1-.06.17-.06.05,0,.12,0,.2.07l-.07.11Z"/>
    <path class="cls-1" d="M7.58,29.25c.06.06.1.15.1.25,0,.09-.03.18-.1.25-.06.06-.15.1-.26.1-.13,0-.21-.05-.26-.1-.06-.06-.1-.15-.1-.25s.04-.19.1-.25c.05-.05.13-.1.26-.1.1,0,.19.03.26.1ZM7.17,29.36s-.06.08-.06.15c0,.06.02.11.06.15.04.04.09.06.14.06.07,0,.12-.03.15-.06.03-.03.06-.07.06-.15,0-.07-.03-.12-.06-.15-.03-.03-.09-.06-.15-.06-.06,0-.11.02-.15.06Z"/>
    <path class="cls-1" d="M8,29.84v-.67h.13l.36.43v-.43h.15v.67h-.13l-.36-.44v.44h-.15Z"/>
    <path class="cls-1" d="M9.8,29.3h-.22v.13h.21v.13h-.21v.15h.22v.13h-.38v-.67h.38v.13Z"/>
    <path class="cls-1" d="M10.28,29.17v.54h.21v.13h-.36v-.67h.16Z"/>
    <path class="cls-1" d="M11.15,29.3h-.22v.13h.21v.13h-.21v.15h.22v.13h-.38v-.67h.38v.13Z"/>
    <path class="cls-1" d="M11.96,29.82c-.06.03-.11.04-.15.04-.12,0-.21-.04-.26-.1-.06-.06-.1-.15-.1-.25s.04-.19.1-.25c.06-.06.15-.1.25-.1.04,0,.1,0,.16.04v.18s-.09-.07-.16-.07c-.06,0-.1.02-.14.05-.04.04-.06.09-.06.16,0,.07.03.12.06.15.01.01.06.06.15.06.04,0,.09-.01.15-.07v.18Z"/>
    <path class="cls-1" d="M12.52,29.3v.54h-.15v-.54h-.15v-.13h.45v.13h-.15Z"/>
    <path class="cls-1" d="M13.18,29.17c.09,0,.14.03.17.06.03.03.06.08.06.15,0,.04,0,.09-.05.14-.02.02-.06.04-.09.05l.21.28h-.19l-.18-.26v.26h-.15v-.67h.24ZM13.1,29.48h.04s.07,0,.09-.03c.01-.01.03-.03.03-.07,0-.04-.02-.06-.03-.07-.03-.02-.07-.02-.09-.02h-.04v.18Z"/>
    <path class="cls-1" d="M14.34,29.25c.06.06.1.15.1.25,0,.09-.03.18-.1.25-.06.06-.15.1-.26.1-.13,0-.21-.05-.26-.1-.06-.06-.11-.15-.11-.25s.04-.19.1-.25c.04-.05.13-.1.26-.1.1,0,.19.03.26.1ZM13.94,29.36s-.06.08-.06.15c0,.06.02.11.06.15.04.04.09.06.14.06.07,0,.12-.03.15-.06.03-.03.06-.07.06-.15,0-.07-.03-.12-.06-.15-.03-.03-.09-.06-.15-.06s-.11.02-.15.06Z"/>
    <path class="cls-1" d="M14.76,29.84v-.67h.13l.37.43v-.43h.16v.67h-.14l-.36-.44v.44h-.16Z"/>
    <path class="cls-1" d="M15.91,29.17v.67h-.16v-.67h.16Z"/>
    <path class="cls-1" d="M16.75,29.82c-.06.03-.11.04-.15.04-.12,0-.21-.04-.26-.1-.06-.06-.11-.15-.11-.25s.04-.19.11-.25c.06-.06.15-.1.25-.1.04,0,.1,0,.16.04v.18s-.08-.07-.16-.07c-.06,0-.1.02-.14.05-.04.04-.06.09-.06.16,0,.07.03.12.06.15.01.01.06.06.15.06.04,0,.09-.01.15-.07v.18Z"/>
    <path class="cls-1" d="M17.41,29.34c-.05-.04-.09-.05-.11-.05-.02,0-.05,0-.07.02-.01.01-.02.03-.02.04,0,.02,0,.03.01.04.02.01.04.02.08.04l.05.02s.07.03.09.05c.04.04.05.09.05.12,0,.07-.02.13-.06.17-.06.06-.15.07-.19.07-.05,0-.09,0-.13-.03-.03-.02-.07-.05-.1-.07l.08-.11s.04.04.06.05c.03.02.05.02.08.02.02,0,.05,0,.07-.02.01-.01.02-.03.02-.05,0-.02,0-.04-.02-.05-.02-.01-.06-.03-.08-.04l-.06-.02s-.07-.03-.09-.05c-.04-.04-.04-.08-.04-.12,0-.06.02-.11.06-.15.05-.05.1-.06.17-.06.05,0,.12,0,.2.07l-.07.11Z"/>
  </g>
</svg>
